# xmcd
#
# Track frame offsets:
#	150
#	13332
#	28677
#	38645
#	53220
#	63855
#	76967
#	86727
#	101067
#	112587
#	121027
#	133852
#	146960
#	156742
#
# Disc length: 2228 seconds
#
# Revision: 0
# Processed by: cddbd v1.5.2PL0 Copyright (c) Steve Scherf et al.
# Submitted via: audiograbber 1.83.01
#
DISCID=bd08b20e
DTITLE=Various Artist - Country and Western (1995)
DYEAR=1995
DGENRE=Country
TTITLE0=Lynn Anderson - Rose Garden
TTITLE1=Benny Rodgers - For The Good Music
TTITLE2=Freddy Fender - Before The Next Teardrop Falls
TTITLE3=Johnny Paycheck - Gree Gree Grass Of Home
TTITLE4=Dolly Parton - Wasn't God Who Made Honky Tonk Angels
TTITLE5=Wanda Jackson - I Fall To Pieces
TTITLE6=Ned Miller - From A Jack To A King
TTITLE7=Frankie Laine - Mule Train
TTITLE8=Willie Nelson - Is There Someting On Your Mind
TTITLE9=Waylon Jennings - Abillene
TTITLE10=Johnny Russell - Goodhearted Woman
TTITLE11=Faron Young - There Goes My Everything
TTITLE12=Hank Locklin - Please Help Me I'm Falling
TTITLE13=Jimmie Rodgers - Kisses Sweeter Than Wine
EXTD=
EXTT0=
EXTT1=
EXTT2=
EXTT3=
EXTT4=
EXTT5=
EXTT6=
EXTT7=
EXTT8=
EXTT9=
EXTT10=
EXTT11=
EXTT12=
EXTT13=
PLAYORDER=
